<?xml version="1.0" encoding="UTF-8"?>
<svg width="389px" height="63px" viewBox="0 0 389 63" version="1.1" xmlns="http://www.w3.org/2000/svg" xmlns:xlink="http://www.w3.org/1999/xlink">
    <!-- Generator: Sketch 51.3 (57544) - http://www.bohemiancoding.com/sketch -->
    <title>OR_Logo-01</title>
    <desc>Created with Sketch.</desc>
    <defs>
        <linearGradient x1="49.9610288%" y1="0%" x2="49.9610288%" y2="100%" id="linearGradient-1">
            <stop stop-color="#F27D21" offset="0%"></stop>
            <stop stop-color="#EF3D25" offset="100%"></stop>
        </linearGradient>
        <linearGradient x1="50.0135906%" y1="-35.4172481%" x2="50.0135906%" y2="97.5997767%" id="linearGradient-2">
            <stop stop-color="#F27D21" offset="0%"></stop>
            <stop stop-color="#EF3D25" offset="100%"></stop>
        </linearGradient>
        <linearGradient x1="49.9844479%" y1="-35.4552039%" x2="49.9844479%" y2="97.7043721%" id="linearGradient-3">
            <stop stop-color="#F27D21" offset="0%"></stop>
            <stop stop-color="#EF3D25" offset="100%"></stop>
        </linearGradient>
        <linearGradient x1="50%" y1="0%" x2="50%" y2="100%" id="linearGradient-4">
            <stop stop-color="#F27D21" offset="0%"></stop>
            <stop stop-color="#EF3D25" offset="100%"></stop>
        </linearGradient>
        <linearGradient x1="50.0313873%" y1="-35.5785355%" x2="50.0313873%" y2="97.6243712%" id="linearGradient-5">
            <stop stop-color="#F27D21" offset="0%"></stop>
            <stop stop-color="#EF3D25" offset="100%"></stop>
        </linearGradient>
        <linearGradient x1="50.0759494%" y1="-9.40189218%" x2="50.0759494%" y2="99.3588315%" id="linearGradient-6">
            <stop stop-color="#F27D21" offset="0%"></stop>
            <stop stop-color="#EF3D25" offset="100%"></stop>
        </linearGradient>
        <linearGradient x1="49.8154982%" y1="0.156465525%" x2="49.8154982%" y2="101.381917%" id="linearGradient-7">
            <stop stop-color="#F27D21" offset="0%"></stop>
            <stop stop-color="#EF3D25" offset="100%"></stop>
        </linearGradient>
        <linearGradient x1="49.8275873%" y1="0.173010895%" x2="49.8275873%" y2="100.51933%" id="linearGradient-8">
            <stop stop-color="#F27D21" offset="0%"></stop>
            <stop stop-color="#EF3D25" offset="100%"></stop>
        </linearGradient>
    </defs>
    <g id="Symbols" stroke="none" stroke-width="1" fill="none" fill-rule="evenodd">
        <g id="OR_Logo-Dark" fill-rule="nonzero">
            <g id="OR_Logo-01">
                <path d="M24.77,0 C38.89,0 49.55,10.74 49.55,24.44 C49.55,38.55 38.89,49.56 24.77,49.56 C10.65,49.56 0,38.55 0,24.44 C0,10.74 10.66,0 24.77,0 M24.77,41.32 C33.42,41.32 40.37,34.03 40.37,24.44 C40.37,15.26 33.42,8.24 24.77,8.24 C16.12,8.24 9.18,15.24 9.18,24.44 C9.18,34.03 16.18,41.32 24.77,41.32" id="Shape" fill="#343433"></path>
                <path d="M53,9.59 C53.0552606,9.18579565 52.9205158,8.7787518 52.6349899,8.48735889 C52.349464,8.19596598 51.9452446,8.05297108 51.54,8.1 L48.83,8.1 L48.83,0.81 L57,0.81 C60.18,0.81 61.6,2.23 61.6,5.4 L61.6,15.4 C61.6033615,16.3717611 61.5566329,17.3430496 61.46,18.31 L61.6,18.31 C61.6,18.31 64.6,13.51 71.92,13.51 C81.24,13.51 87.18,20.87 87.18,31.51 C87.18,42.45 80.5,49.51 71.39,49.51 C67.3876661,49.6746252 63.5558701,47.8799866 61.12,44.7 L61,44.7 C61.0877558,45.4634281 61.1278335,46.2315846 61.12,47 L61.12,48.76 L53,48.76 L53,9.59 Z M69.9,42.33 C74.56,42.33 78.54,38.49 78.54,31.67 C78.54,25.12 75.03,20.86 69.97,20.86 C65.51,20.86 61.33,24.1 61.33,31.73 C61.33,37.07 64.16,42.33 69.9,42.33 Z" id="Shape" fill="#343433"></path>
                <path d="M85.09,55.43 C87.53,55.43 91.98,54.69 91.98,49.08 L91.98,23.08 C92.0331531,22.6734946 91.894412,22.2653671 91.6045224,21.9754776 C91.3146329,21.685588 90.9065054,21.5468469 90.5,21.6 L87.8,21.6 L87.8,14.3 L96,14.3 C99.24,14.3 100.59,15.72 100.59,18.89 L100.59,49.76 C100.59,61.3 90.93,62.76 86.21,62.76 C85.3491104,62.7692903 84.4890879,62.7023625 83.64,62.56 L83.64,55.29 C84.1272839,55.3869083 84.6231879,55.4338182 85.12,55.43 L85.09,55.43 Z M92.32,0.81 L99.81,0.81 L99.81,8.71 L92.32,8.71 L92.32,0.81 Z" id="Shape" fill="#343433"></path>
                <path d="M121.36,13.5 C131.22,13.5 136.62,20.73 136.62,29.84 C136.62,30.84 136.41,33.02 136.41,33.02 L112.65,33.02 C113.32,39.09 117.78,42.27 122.98,42.27 C126.541231,42.1229964 129.9456,40.7647767 132.63,38.42 L136.21,44.36 C132.383346,47.7200687 127.462472,49.568952 122.37,49.56 C110.96,49.56 103.87,41.32 103.87,31.56 C103.87,20.96 111.03,13.56 121.36,13.56 L121.36,13.5 Z M127.84,27.13 C127.7,23.02 124.84,20.18 121.36,20.18 C116.97,20.18 113.86,22.81 112.92,27.18 L127.84,27.13 Z" id="Shape" fill="#343433"></path>
                <path d="M156.93,13.5 C161.38,13.5 169.42,15.33 169.42,21.27 L169.42,25.32 L161.86,25.32 L161.86,23.43 C161.86,21.54 159.02,20.73 156.93,20.73 C150.99,20.73 146.73,25.25 146.73,31.46 C146.73,38.46 151.93,42.06 157.47,42.06 C163.34,42.06 167.66,37.4 167.66,37.4 L171.24,43.4 C167.481571,47.4037463 162.221243,49.6550653 156.73,49.61 C145.38,49.61 138.09,41.61 138.09,31.61 C138.09,21.89 145.09,13.61 156.93,13.61" id="Shape" fill="#343433"></path>
                <path d="M174.66,21.13 L170.2,21.13 L170.2,14.31 L174.86,14.31 L174.86,4.93 L183.23,4.93 L183.23,14.31 L191.06,14.31 L191.06,21.13 L183.23,21.13 L183.23,35 C183.23,40.67 187.69,41.48 190.05,41.48 C190.572945,41.4862102 191.095296,41.4426809 191.61,41.35 L191.61,48.84 C190.736952,48.978763 189.853989,49.0456541 188.97,49.04 C184.18,49.04 174.66,47.63 174.66,36.04 L174.66,21.13 Z" id="Shape" fill="#343433"></path>
                <path d="M202,6.88 L210.92,6.88 C215.92,6.88 218.92,9.99 218.92,15.33 C218.92,20.66 215.92,23.97 210.75,23.97 L202,23.97 L202,6.88 Z M190.86,1.08 L190.86,6.88 L195.25,6.88 L195.25,48.75 L202,48.75 L202,29.75 L208.21,29.75 C210.85,29.75 211.72,30.09 212.94,32.32 L219.42,45.15 C220.98,48.25 222.33,48.73 226.04,48.73 L229.35,48.73 L229.35,42.94 L228.47,42.94 C226.85,42.94 225.77,42.8 225.09,41.39 L219.34,30 C218.898663,29.1000773 218.203365,28.3491558 217.34,27.84 L217.34,27.7 C220.72,26.96 225.91,23.04 225.91,15.08 C225.91,6.37 220.04,1.08 211.67,1.08 L190.87,1.08 L190.86,1.08 Z" id="Shape" fill="url(#linearGradient-1)"></path>
                <path d="M235,31.6 C235,24.51 240.27,19.45 246.68,19.45 C253.16,19.45 258.43,24.51 258.43,31.6 C258.43,38.75 253.16,43.89 246.68,43.89 C240.27,43.89 235,38.75 235,31.6 M228.32,31.6 C228.32,42 236.49,49.6 246.68,49.6 C256.88,49.6 265.11,42.04 265.11,31.6 C265.11,21.27 256.88,13.77 246.68,13.77 C236.49,13.77 228.32,21.27 228.32,31.6" id="Shape" fill="url(#linearGradient-2)"></path>
                <path d="M266.54,31.67 C266.54,41.93 274.04,49.56 284.77,49.56 C290.027436,49.6293991 295.074435,47.4974771 298.69,43.68 L295.85,39 C293.067829,41.8960779 289.263829,43.5899341 285.25,43.72 C278.9,43.72 273.25,39.33 273.25,31.57 C273.25,24.35 278.25,19.35 284.93,19.35 C287.43,19.35 291.28,20.43 291.28,22.86 L291.28,24.75 L297.22,24.75 L297.22,21.27 C297.22,15.46 289.05,13.77 284.93,13.77 C273.93,13.77 266.56,21.61 266.56,31.67" id="Shape" fill="url(#linearGradient-3)"></path>
                <path d="M297.35,1.08 L297.35,6.68 L300.13,6.68 C300.53848,6.62615321 300.948676,6.76612816 301.239031,7.05844547 C301.529387,7.35076279 301.666596,7.76189148 301.61,8.17 L301.61,48.75 L308.16,48.75 L308.16,32.68 L310.72,32.68 C311.81,32.68 313.36,32.81 314.1,34.1 L320.31,45.57 C321.8,48.21 322.81,48.75 325.98,48.75 L330.71,48.75 L330.71,43.14 L328.62,43.14 C326.93,43.14 326.25,42.87 325.71,41.79 L320.65,32.54 C319.5,30.38 318.36,29.98 318.36,29.98 L318.36,29.84 C319.388263,29.1816397 320.26164,28.3082631 320.92,27.28 L330.17,14.58 L322.67,14.58 L314.77,25.66 C313.869255,26.6737528 312.553802,27.2190948 311.2,27.14 L308.2,27.14 L308.2,5 C308.2,2 306.92,1.09 303.88,1.09 L297.39,1.09 L297.35,1.08 Z" id="Shape" fill="url(#linearGradient-4)"></path>
                <path d="M346.8,19 C351.05,19 354.63,22 354.8,27.71 L336.7,27.71 C337.75,22 341.8,19 346.8,19 M329.72,31.7 C329.72,41.82 337.07,49.59 347.88,49.59 C352.727662,49.5733019 357.404261,47.7964785 361.04,44.59 L358.21,39.93 C355.452585,42.4007373 351.910706,43.8174891 348.21,43.93 C342.13,43.93 336.86,39.81 336.46,32.51 L361.37,32.51 C361.37,32.51 361.57,30.69 361.57,29.81 C361.57,20.97 356.44,13.81 346.86,13.81 C337.13,13.81 329.71,20.81 329.71,31.71" id="Shape" fill="url(#linearGradient-5)"></path>
                <path d="M366.41,5.2 L366.41,14.58 L361.81,14.58 L361.81,19.85 L366.27,19.85 L366.27,36.26 C366.27,47.67 374.98,49.02 379.27,49.02 C380.035706,49.028434 380.801024,48.981646 381.56,48.88 L381.56,43.08 C381.048733,43.1732025 380.529649,43.2167385 380.01,43.21 C377.51,43.21 372.79,42.33 372.79,35.51 L372.79,19.85 L381,19.85 L381,14.58 L372.83,14.58 L372.83,5.2 L366.41,5.2 Z" id="Shape" fill="url(#linearGradient-6)"></path>
                <path d="M384.77,44.43 L386.13,44.43 C386.494261,44.4000996 386.85508,44.5191699 387.13,44.76 C387.302293,44.9392194 387.39278,45.1817236 387.38,45.43 C387.394877,45.8255937 387.152296,46.1854217 386.78,46.32 L387.48,47.32 L386.55,47.32 L385.95,46.43 L385.59,46.43 L385.59,47.32 L384.78,47.32 L384.77,44.43 Z M386.12,45.84 C386.4,45.84 386.56,45.71 386.56,45.5 C386.56,45.27 386.38,45.15 386.11,45.15 L385.58,45.15 L385.58,45.86 L386.12,45.84 Z" id="Shape" fill="url(#linearGradient-7)"></path>
                <path d="M386,43.08 C384.398374,43.08 383.1,44.3783742 383.1,45.98 C383.111028,47.5721496 384.407741,48.8554683 385.999919,48.8499652 C387.592098,48.8444621 388.879908,47.5522105 388.879931,45.9600228 C388.879953,44.367835 387.592178,43.0755475 386,43.07 L386,43.08 Z M386,48.44 C385.347791,48.4508048 384.718839,48.197859 384.255715,47.7385006 C383.792591,47.2791422 383.53452,46.6522758 383.54,46 C383.54,44.6524252 384.632425,43.56 385.98,43.56 C387.327575,43.56 388.42,44.6524252 388.42,46 C388.422658,46.6444777 388.169186,47.2636145 387.715347,47.7212044 C387.261507,48.1787944 386.644478,48.4373533 386,48.44 Z" id="Shape" fill="url(#linearGradient-8)"></path>
            </g>
        </g>
    </g>
</svg>