<?xml version="1.0" encoding="utf-8"?>
<svg version="1.1" id="Layer_1" xmlns="http://www.w3.org/2000/svg" xmlns:xlink="http://www.w3.org/1999/xlink" x="0px" y="0px" viewBox="0 0 320 220" enable-background="new 0 0 320 220" xml:space="preserve">
	<rect fill="#FFFFFF" width="320" height="220"/>
	<path fill="#B22234" d="M0,186.154h320v-16.923H0V186.154z M0,152.307h320v-16.923H0V152.307z M0,220h320v-16.923H0V220z M0,50.769h320V33.846H0V50.769z M0,0v16.923h320V0H0z M0,118.461h320v-16.923H0V118.461z M0,84.615h320V67.692H0V84.615z"/>
	<rect fill="#3C3B6E" width="167.2" height="118.461"/>
	<path fill="#FFFFFF" d="M24.177,29.073l3.983-2.894l3.983,2.894l-1.521-4.682l3.983-2.894h-4.923l-1.521-4.682l-1.521,4.682
		h-4.923l3.983,2.894L24.177,29.073z M24.519,52.872l3.983-2.894l3.983,2.894l-1.521-4.682l3.983-2.894h-4.923l-1.521-4.682
		l-1.521,4.682h-4.923l3.983,2.894L24.519,52.872z M14.98,75.779l-1.521,4.682H8.536l3.983,2.894l-1.521,4.682l3.983-2.894
		l3.983,2.894l-1.521-4.682l3.983-2.894h-4.923L14.98,75.779z M16.163,104.12l-1.521-4.682l-1.521,4.682H8.197l3.983,2.894
		l-1.521,4.682l3.983-2.894l3.983,2.894l-1.521-4.682l3.983-2.894H16.163z M10.317,40.953L14.3,38.06l3.983,2.894l-1.521-4.682
		l3.983-2.894h-4.923L14.3,28.695l-1.521,4.682H7.856l3.983,2.894L10.317,40.953z M28.584,63.969l-1.521,4.682H22.14l3.983,2.894
		l-1.521,4.682l3.983-2.894l3.983,2.894l-1.521-4.682l3.983-2.894h-4.923L28.584,63.969z M42.7,75.779l-1.521,4.682h-4.923
		l3.983,2.894l-1.521,4.682l3.983-2.894l3.983,2.894l-1.521-4.682l3.983-2.894h-4.923L42.7,75.779z M51.897,29.073l3.983-2.894
		l3.983,2.894l-1.521-4.682l3.983-2.894h-4.923l-1.521-4.682l-1.521,4.682h-4.923l3.983,2.894L51.897,29.073z M43.883,104.12
		l-1.521-4.682l-1.521,4.682h-4.923l3.983,2.894l-1.521,4.682l3.983-2.894l3.983,2.894l-1.521-4.682l3.983-2.894H43.883z
		M30.023,92.274l-1.521-4.682l-1.521,4.682h-4.923l3.983,2.894l-1.521,4.682l3.983-2.894l3.983,2.894l-1.521-4.682l3.983-2.894
		H30.023z M10.317,17.193l3.983-2.894l3.983,2.894l-1.521-4.682l3.983-2.894h-4.923L14.3,4.935l-1.521,4.682H7.856l3.983,2.894
		L10.317,17.193z M38.037,40.953l3.983-2.894l3.983,2.894l-1.521-4.682l3.983-2.894h-4.923l-1.521-4.682l-1.521,4.682h-4.923
		l3.983,2.894L38.037,40.953z M154.842,57.077l-1.521-4.682l-1.521,4.682h-4.923l3.983,2.894l-1.521,4.682l3.983-2.894l3.983,2.894
		l-1.521-4.682l3.983-2.894H154.842z M127.122,57.077l-1.521-4.682l-1.521,4.682h-4.923l3.983,2.894l-1.521,4.682l3.983-2.894
		l3.983,2.894l-1.521-4.682l3.983-2.894H127.122z M121.197,17.193l3.983-2.894l3.983,2.894l-1.521-4.682l3.983-2.894h-4.923
		l-1.521-4.682l-1.521,4.682h-4.923l3.983,2.894L121.197,17.193z M148.917,17.193l3.983-2.894l3.983,2.894l-1.521-4.682
		l3.983-2.894h-4.923L152.9,4.935l-1.521,4.682h-4.923l3.983,2.894L148.917,17.193z M99.402,57.077l-1.521-4.682l-1.521,4.682
		h-4.923l3.983,2.894l-1.521,4.682l3.983-2.894l3.983,2.894l-1.521-4.682l3.983-2.894H99.402z M155.101,80.461l-1.521-4.682
		l-1.521,4.682h-4.923l3.983,2.894l-1.521,4.682l3.983-2.894l3.983,2.894l-1.521-4.682l3.983-2.894H155.101z M52.239,52.872
		l3.983-2.894l3.983,2.894l-1.521-4.682l3.983-2.894h-4.923l-1.521-4.682l-1.521,4.682h-4.923l3.983,2.894L52.239,52.872z
		M93.477,17.193l3.983-2.894l3.983,2.894l-1.521-4.682l3.983-2.894h-4.923L97.46,4.935l-1.521,4.682h-4.923l3.983,2.894
		L93.477,17.193z M43.962,57.077l-1.521-4.682l-1.521,4.682h-4.923l3.983,2.894l-1.521,4.682l3.983-2.894l3.983,2.894l-1.521-4.682
		l3.983-2.894H43.962z M16.242,57.077l-1.521-4.682l-1.521,4.682H8.276l3.983,2.894l-1.521,4.682l3.983-2.894l3.983,2.894
		l-1.521-4.682l3.983-2.894H16.242z M38.037,17.193l3.983-2.894l3.983,2.894l-1.521-4.682l3.983-2.894h-4.923L42.02,4.935
		l-1.521,4.682h-4.923l3.983,2.894L38.037,17.193z M65.757,17.193l3.983-2.894l3.983,2.894l-1.521-4.682l3.983-2.894h-4.923
		L69.74,4.935l-1.521,4.682h-4.923l3.983,2.894L65.757,17.193z M71.682,57.077l-1.521-4.682l-1.521,4.682h-4.923l3.983,2.894
		l-1.521,4.682l3.983-2.894l3.983,2.894l-1.521-4.682l3.983-2.894H71.682z M79.959,52.872l3.983-2.894l3.983,2.894l-1.521-4.682
		l3.983-2.894h-4.923l-1.521-4.682l-1.521,4.682h-4.923l3.983,2.894L79.959,52.872z M127.043,104.12l-1.521-4.682L124,104.12
		h-4.923l3.983,2.894l-1.521,4.682l3.983-2.894l3.983,2.894l-1.521-4.682l3.983-2.894H127.043z M121.197,40.953l3.983-2.894
		l3.983,2.894l-1.521-4.682l3.983-2.894h-4.923l-1.521-4.682l-1.521,4.682h-4.923l3.983,2.894L121.197,40.953z M135.057,29.073
		l3.983-2.894l3.983,2.894l-1.521-4.682l3.983-2.894h-4.923l-1.521-4.682l-1.521,4.682h-4.923l3.983,2.894L135.057,29.073z
		M125.86,75.779l-1.521,4.682h-4.923l3.983,2.894l-1.521,4.682l3.983-2.894l3.983,2.894l-1.521-4.682l3.983-2.894h-4.923
		L125.86,75.779z M57.743,92.274l-1.521-4.682l-1.521,4.682h-4.923l3.983,2.894l-1.521,4.682l3.983-2.894l3.983,2.894l-1.521-4.682
		l3.983-2.894H57.743z M107.679,52.872l3.983-2.894l3.983,2.894l-1.521-4.682l3.983-2.894h-4.923l-1.521-4.682l-1.521,4.682h-4.923
		l3.983,2.894L107.679,52.872z M111.744,63.969l-1.521,4.682H105.3l3.983,2.894l-1.521,4.682l3.983-2.894l3.983,2.894l-1.521-4.682
		l3.983-2.894h-4.923L111.744,63.969z M154.763,104.12l-1.521-4.682l-1.521,4.682h-4.923l3.983,2.894l-1.521,4.682l3.983-2.894
		l3.983,2.894l-1.521-4.682l3.983-2.894H154.763z M135.399,52.872l3.983-2.894l3.983,2.894l-1.521-4.682l3.983-2.894h-4.923
		l-1.521-4.682l-1.521,4.682h-4.923l3.983,2.894L135.399,52.872z M148.917,40.953l3.983-2.894l3.983,2.894l-1.521-4.682
		l3.983-2.894h-4.923l-1.521-4.682l-1.521,4.682h-4.923l3.983,2.894L148.917,40.953z M140.903,92.274l-1.521-4.682l-1.521,4.682
		h-4.923l3.983,2.894l-1.521,4.682l3.983-2.894l3.983,2.894l-1.521-4.682l3.983-2.894H140.903z M139.464,63.969l-1.521,4.682
		h-4.923l3.983,2.894l-1.521,4.682l3.983-2.894l3.983,2.894l-1.521-4.682l3.983-2.894h-4.923L139.464,63.969z M113.183,92.274
		l-1.521-4.682l-1.521,4.682h-4.923l3.983,2.894l-1.521,4.682l3.983-2.894l3.983,2.894l-1.521-4.682l3.983-2.894H113.183z
		M71.603,104.12l-1.521-4.682l-1.521,4.682h-4.923l3.983,2.894l-1.521,4.682l3.983-2.894l3.983,2.894l-1.521-4.682l3.983-2.894
		H71.603z M107.337,29.073l3.983-2.894l3.983,2.894l-1.521-4.682l3.983-2.894h-4.923l-1.521-4.682l-1.521,4.682h-4.923l3.983,2.894
		L107.337,29.073z M70.42,75.779l-1.521,4.682h-4.923l3.983,2.894l-1.521,4.682l3.983-2.894l3.983,2.894l-1.521-4.682l3.983-2.894
		h-4.923L70.42,75.779z M56.304,63.969l-1.521,4.682H49.86l3.983,2.894l-1.521,4.682l3.983-2.894l3.983,2.894l-1.521-4.682
		l3.983-2.894h-4.923L56.304,63.969z M65.757,40.953l3.983-2.894l3.983,2.894l-1.521-4.682l3.983-2.894h-4.923l-1.521-4.682
		l-1.521,4.682h-4.923l3.983,2.894L65.757,40.953z M79.617,29.073l3.983-2.894l3.983,2.894l-1.521-4.682l3.983-2.894h-4.923
		L83.6,16.815l-1.521,4.682h-4.923l3.983,2.894L79.617,29.073z M85.464,92.274l-1.521-4.682l-1.521,4.682h-4.923l3.983,2.894
		l-1.521,4.682l3.983-2.894l3.983,2.894l-1.521-4.682l3.983-2.894H85.464z M98.14,75.779l-1.521,4.682h-4.923l3.983,2.894
		l-1.521,4.682l3.983-2.894l3.983,2.894l-1.521-4.682l3.983-2.894h-4.923L98.14,75.779z M99.323,104.12l-1.521-4.682l-1.521,4.682
		h-4.923l3.983,2.894l-1.521,4.682l3.983-2.894l3.983,2.894l-1.521-4.682l3.983-2.894H99.323z M84.024,63.969l-1.521,4.682H77.58
		l3.983,2.894l-1.521,4.682l3.983-2.894l3.983,2.894l-1.521-4.682l3.983-2.894h-4.923L84.024,63.969z M93.477,40.953l3.983-2.894
		l3.983,2.894l-1.521-4.682l3.983-2.894h-4.923l-1.521-4.682l-1.521,4.682h-4.923l3.983,2.894L93.477,40.953z"/>
	<path opacity="0.4" d="M312,8v204H8V8H312 M320,0H0v220h320V0L320,0z"/>
</svg>
