<?xml version="1.0" encoding="utf-8"?>
<svg version="1.1" xmlns="http://www.w3.org/2000/svg" xmlns:xlink="http://www.w3.org/1999/xlink" x="0px" y="0px" viewBox="0 0 230 55" xml:space="preserve">
  <path d="M101.44,23.68a3,3,0,0,0-2.93,2.83h5.88A3,3,0,0,0,101.44,23.68Zm14.4,0a3,3,0,0,0-2.93,2.83h5.89A2.93,2.93,0,0,0,115.84,23.68Zm38-5.2h0a4.19,4.19,0,0,0-4,2.81l-.47,1.22-.44-1.22a4.19,4.19,0,0,0-4-2.83,3.35,3.35,0,0,0-.71.07V16.87a4.2,4.2,0,1,0-8.4,0v3.22a7.58,7.58,0,0,0-4.95-1.78,6.25,6.25,0,0,0-1.23.1V16.89a4.13,4.13,0,1,0-8.25,0v3.54a8.63,8.63,0,0,0-12.15.86,6,6,0,0,0-.73,1c-.22-.31-.47-.63-.74-1a8.67,8.67,0,0,0-6.54-3A8.4,8.4,0,0,0,96.07,20a4.07,4.07,0,0,0-3.44-1.69,4.18,4.18,0,0,0-4,3.2,4.23,4.23,0,0,0-8.2,0,4.13,4.13,0,0,0-4-3.2,4,4,0,0,0-4.22,3.84,7.32,7.32,0,0,0,.51,2.54l3.2,9a4.57,4.57,0,0,0,4.47,3.44,4.38,4.38,0,0,0,4.14-2.68,4.34,4.34,0,0,0,4.15,2.71c1.22,0,3.4-.44,4.47-3.47l.37-1a8.92,8.92,0,0,0,8,4.52c2.57,0,6-1.1,7.52-3.1a9.13,9.13,0,0,0,7,3.1,11.38,11.38,0,0,0,6.15-1.86,4,4,0,0,0,3.32,1.69,4.25,4.25,0,0,0,2.18-.56,6.74,6.74,0,0,0,3,.7,7.71,7.71,0,0,0,5.54-2.27,4,4,0,0,0,3.71,2.27,4.09,4.09,0,0,0,3.86-2.63s-.61,3.39-.61,4a4,4,0,0,0,4.25,3.91,4.2,4.2,0,0,0,3.88-2.93l6.18-15.35a4.64,4.64,0,0,0,.36-1.86A4,4,0,0,0,153.82,18.48ZM94.14,23.9,90.92,33a2.38,2.38,0,0,1-2.27,1.9,2.14,2.14,0,0,1-2.17-1.73l-1.93-6h0l-1.92,6a2.15,2.15,0,0,1-2.18,1.73A2.39,2.39,0,0,1,78.15,33L75,24a5.37,5.37,0,0,1-.39-1.78,1.68,1.68,0,0,1,1.88-1.52,1.79,1.79,0,0,1,1.79,1.49l2.17,7.2h0l2.19-7c.3-1,.83-1.66,1.91-1.66s1.61.61,1.9,1.66l2.2,7h0l2.17-7.2a1.79,1.79,0,0,1,1.78-1.49,1.73,1.73,0,0,1,1.88,1.83A7.2,7.2,0,0,1,94.14,23.9Zm7.69,7.81c1.9,0,3.2-1.51,4.2-1.51a1.64,1.64,0,0,1,1.51,1.58c0,1.59-3.27,3.13-6,3.13a6.7,6.7,0,0,1-6.91-7.08c0-3.74,2.74-7.13,6.62-7.13a6.87,6.87,0,0,1,6.64,6.74c0,1.1-.49,1.66-1.61,1.66H98.36C98.61,30.86,100.12,31.71,101.83,31.71Zm18.94-2.66h-7.88c.24,1.81,1.76,2.64,3.49,2.64,1.9,0,3.2-1.52,4.2-1.52a1.64,1.64,0,0,1,1.51,1.59c0,1.59-3.27,3.12-6,3.12a6.69,6.69,0,0,1-6.91-7.07c0-3.74,2.74-7.13,6.62-7.13a6.86,6.86,0,0,1,6.64,6.73C122.38,28.51,121.87,29.05,120.77,29.05Zm10,5.86h0a4,4,0,0,1-3.37-1.69,1.76,1.76,0,0,1-1.83,1.54,1.86,1.86,0,0,1-1.83-2V16.92a1.82,1.82,0,0,1,1.81-2.05,1.84,1.84,0,0,1,1.8,2.05v5a5.49,5.49,0,0,1,3.54-1.3c4,0,6,3.71,6,7.33C136.81,31.42,134.44,34.91,130.73,34.91Zm11.13-2.08a1.86,1.86,0,1,1-3.71,0v-16a1.86,1.86,0,1,1,3.71,0Zm13.55-9.49-6.15,15.4a2,2,0,0,1-1.73,1.47,1.71,1.71,0,0,1-1.93-1.59,3.52,3.52,0,0,1,.22-1.08l1.61-4-4.08-10.18a2.6,2.6,0,0,1-.17-.95,1.77,1.77,0,0,1,1.73-1.59,1.83,1.83,0,0,1,1.83,1.32l2.54,6.93L152,22.14a1.86,1.86,0,0,1,1.83-1.32,1.77,1.77,0,0,1,1.73,1.59A1.87,1.87,0,0,1,155.41,23.34ZM130.27,24c-2,0-2.91,1.83-2.91,3.64s.88,3.83,2.91,3.83,2.88-2,2.88-3.71S132.17,24,130.27,24Z" fill="#0099d6"/>
</svg>